<svg width="274" height="48" viewBox="0 0 274 48" fill="none" xmlns="http://www.w3.org/2000/svg">
<path d="M17.344 36L6.816 19.968V36H2.368V13.024H7.616L17.632 28.256V13.024H22.112V36H17.344ZM33.8767 36.288C32.1701 36.288 30.6661 35.9253 29.3648 35.2C28.0848 34.4533 27.0928 33.408 26.3888 32.064C25.6848 30.72 25.3328 29.1627 25.3328 27.392C25.3328 25.6853 25.6954 24.1707 26.4208 22.848C27.1461 21.5253 28.1488 20.4907 29.4288 19.744C30.7088 18.976 32.1701 18.592 33.8128 18.592C35.1568 18.592 36.3728 18.848 37.4608 19.36C38.5701 19.8507 39.4981 20.5547 40.2448 21.472C40.9914 22.3893 41.5248 23.456 41.8448 24.672C42.1648 25.8667 42.2181 27.1573 42.0048 28.544H27.9568V25.728H37.3008C37.2581 24.5333 36.9061 23.5947 36.2448 22.912C35.6048 22.208 34.7621 21.856 33.7168 21.856C32.8848 21.856 32.1808 22.0693 31.6048 22.496C31.0288 22.9227 30.5808 23.552 30.2608 24.384C29.9621 25.1947 29.8128 26.1973 29.8128 27.392C29.8128 28.5653 29.9621 29.5573 30.2608 30.368C30.5594 31.1787 31.0074 31.7973 31.6048 32.224C32.2021 32.6507 32.9274 32.864 33.7808 32.864C34.7621 32.864 35.5728 32.6293 36.2128 32.16C36.8528 31.6907 37.3008 31.04 37.5568 30.208H41.9728C41.4821 32.128 40.5328 33.6213 39.1248 34.688C37.7168 35.7547 35.9674 36.288 33.8767 36.288ZM55.16 36V33.888C54.6053 34.6773 53.9013 35.2853 53.048 35.712C52.1947 36.1173 51.1813 36.32 50.008 36.32C48.2373 36.32 46.808 35.84 45.72 34.88C44.632 33.92 44.088 32.64 44.088 31.04C44.088 29.376 44.7493 28.1067 46.072 27.232C47.3947 26.3573 49.2933 25.92 51.768 25.92C52.2587 25.92 52.728 25.9413 53.176 25.984C53.624 26.0053 54.104 26.048 54.616 26.112V25.088C54.616 24.128 54.36 23.3813 53.848 22.848C53.336 22.3147 52.6107 22.048 51.672 22.048C50.712 22.048 49.9547 22.3147 49.4 22.848C48.8453 23.3813 48.5253 24.128 48.44 25.088H44.44C44.5253 23.7653 44.8773 22.624 45.496 21.664C46.136 20.6827 46.9787 19.9253 48.024 19.392C49.0907 18.8587 50.3067 18.592 51.672 18.592C53.912 18.592 55.6507 19.1787 56.888 20.352C58.1467 21.5253 58.776 23.1573 58.776 25.248V36H55.16ZM48.28 30.912C48.28 31.616 48.5147 32.1813 48.984 32.608C49.4747 33.0347 50.136 33.248 50.968 33.248C52.0987 33.248 52.984 32.96 53.624 32.384C54.2853 31.7867 54.616 30.9973 54.616 30.016V28.8C54.104 28.7147 53.6453 28.6613 53.24 28.64C52.8347 28.5973 52.44 28.576 52.056 28.576C50.8187 28.576 49.88 28.768 49.24 29.152C48.6 29.536 48.28 30.1227 48.28 30.912ZM67.057 27.712V36H62.609V18.912H66.705V22.208C67.345 21.12 68.273 20.2667 69.489 19.648C70.705 19.0293 71.9957 18.72 73.361 18.72V23.328C72.1237 23.2427 71.025 23.3067 70.065 23.52C69.1263 23.712 68.3903 24.1493 67.857 24.832C67.3237 25.4933 67.057 26.4533 67.057 27.712ZM82.9705 36.288C81.2638 36.288 79.7598 35.9253 78.4585 35.2C77.1785 34.4533 76.1865 33.408 75.4825 32.064C74.7785 30.72 74.4265 29.1627 74.4265 27.392C74.4265 25.6853 74.7892 24.1707 75.5145 22.848C76.2398 21.5253 77.2425 20.4907 78.5225 19.744C79.8025 18.976 81.2638 18.592 82.9065 18.592C84.2505 18.592 85.4665 18.848 86.5545 19.36C87.6638 19.8507 88.5918 20.5547 89.3385 21.472C90.0852 22.3893 90.6185 23.456 90.9385 24.672C91.2585 25.8667 91.3118 27.1573 91.0985 28.544H77.0505V25.728H86.3945C86.3518 24.5333 85.9998 23.5947 85.3385 22.912C84.6985 22.208 83.8558 21.856 82.8105 21.856C81.9785 21.856 81.2745 22.0693 80.6985 22.496C80.1225 22.9227 79.6745 23.552 79.3545 24.384C79.0558 25.1947 78.9065 26.1973 78.9065 27.392C78.9065 28.5653 79.0558 29.5573 79.3545 30.368C79.6532 31.1787 80.1012 31.7973 80.6985 32.224C81.2958 32.6507 82.0212 32.864 82.8745 32.864C83.8558 32.864 84.6665 32.6293 85.3065 32.16C85.9465 31.6907 86.3945 31.04 86.6505 30.208H91.0665C90.5758 32.128 89.6265 33.6213 88.2185 34.688C86.8105 35.7547 85.0612 36.288 82.9705 36.288ZM108.51 30.528C108.51 32.2987 107.848 33.7067 106.526 34.752C105.224 35.7973 103.358 36.32 100.926 36.32C98.5151 36.32 96.6271 35.776 95.2618 34.688C93.9178 33.5787 93.1604 32.0747 92.9898 30.176H97.2458C97.2671 31.0507 97.6191 31.7547 98.3018 32.288C99.0058 32.8 99.9018 33.056 100.99 33.056C101.864 33.056 102.59 32.9173 103.166 32.64C103.742 32.3413 104.03 31.8933 104.03 31.296C104.03 30.7627 103.848 30.3573 103.486 30.08C103.123 29.8027 102.526 29.5893 101.694 29.44L98.6218 28.864C97.0858 28.5867 95.8804 28.032 95.0058 27.2C94.1311 26.368 93.6938 25.2907 93.6938 23.968C93.6938 22.9013 93.9818 21.9627 94.5578 21.152C95.1338 20.3413 95.9444 19.712 96.9898 19.264C98.0351 18.816 99.2618 18.592 100.67 18.592C102.099 18.592 103.358 18.8373 104.446 19.328C105.555 19.7973 106.43 20.48 107.07 21.376C107.731 22.272 108.115 23.328 108.222 24.544H103.966C103.902 23.712 103.571 23.0613 102.974 22.592C102.376 22.1013 101.608 21.856 100.67 21.856C99.8591 21.856 99.1978 22.0053 98.6858 22.304C98.1951 22.5813 97.9498 22.9973 97.9498 23.552C97.9498 24.064 98.1311 24.448 98.4938 24.704C98.8564 24.9387 99.4218 25.1307 100.19 25.28L103.486 25.888C105.15 26.208 106.398 26.752 107.23 27.52C108.083 28.288 108.51 29.2907 108.51 30.528ZM121.827 31.68V35.552C121.293 35.8293 120.749 36.0213 120.195 36.128C119.661 36.256 119.064 36.32 118.403 36.32C117.251 36.32 116.237 36.1067 115.363 35.68C114.509 35.232 113.848 34.5707 113.379 33.696C112.909 32.8 112.675 31.7227 112.675 30.464V22.72H109.219V18.912H112.675V13.856H117.091V18.912H121.987V22.72H117.091V29.44C117.091 30.4213 117.304 31.136 117.731 31.584C118.179 32.0107 118.797 32.224 119.587 32.224C120.013 32.224 120.419 32.1813 120.803 32.096C121.187 31.9893 121.528 31.8507 121.827 31.68ZM131.528 36.32C129.885 36.32 128.434 35.9467 127.176 35.2C125.938 34.4533 124.968 33.408 124.264 32.064C123.56 30.72 123.208 29.184 123.208 27.456C123.208 25.7493 123.56 24.2347 124.264 22.912C124.989 21.568 125.981 20.512 127.24 19.744C128.498 18.976 129.928 18.592 131.528 18.592C133 18.592 134.333 18.912 135.528 19.552C136.722 20.1707 137.693 21.056 138.44 22.208C139.186 23.3387 139.645 24.672 139.816 26.208H135.144C135.037 25.0773 134.653 24.1813 133.992 23.52C133.352 22.8587 132.53 22.528 131.528 22.528C130.76 22.528 130.088 22.7307 129.512 23.136C128.957 23.5413 128.52 24.1067 128.2 24.832C127.901 25.5573 127.752 26.432 127.752 27.456C127.752 28.4587 127.901 29.3333 128.2 30.08C128.52 30.8267 128.957 31.4027 129.512 31.808C130.088 32.192 130.76 32.384 131.528 32.384C132.552 32.384 133.373 32.064 133.992 31.424C134.632 30.7627 135.016 29.856 135.144 28.704H139.816C139.666 30.2613 139.218 31.616 138.472 32.768C137.725 33.8987 136.765 34.7733 135.592 35.392C134.418 36.0107 133.064 36.32 131.528 36.32ZM147.152 36H142.672V13.024H147.152V36ZM155.588 36H151.14V18.912H155.588V36ZM156.292 14.944C156.292 15.6907 156.015 16.32 155.46 16.832C154.927 17.3227 154.212 17.568 153.316 17.568C152.442 17.568 151.727 17.3227 151.172 16.832C150.639 16.32 150.372 15.6907 150.372 14.944C150.372 14.1547 150.639 13.5147 151.172 13.024C151.727 12.512 152.442 12.256 153.316 12.256C154.212 12.256 154.927 12.512 155.46 13.024C156.015 13.5147 156.292 14.1547 156.292 14.944ZM163.995 26.688V36H159.547V18.912H163.643V21.344C164.283 20.4907 165.029 19.8187 165.883 19.328C166.757 18.8373 167.76 18.592 168.891 18.592C170.619 18.592 172.016 19.1467 173.083 20.256C174.149 21.344 174.683 22.912 174.683 24.96V36H170.267V26.464C170.267 25.184 170.011 24.2133 169.499 23.552C169.008 22.8693 168.261 22.528 167.259 22.528C166.661 22.528 166.107 22.688 165.595 23.008C165.104 23.3067 164.709 23.7653 164.411 24.384C164.133 24.9813 163.995 25.7493 163.995 26.688ZM182.963 36H178.515V13.024H182.963V26.144L189.203 18.912H194.323L187.251 27.104L195.155 36H189.491L182.963 28.064V36Z" fill="#022920"/>
<path d="M211.76 40H209.56V25.64H218.28V27.56H211.76V32.24H217.32V34.16H211.76V40ZM226.308 40V38.36C225.975 38.9467 225.522 39.4 224.948 39.72C224.375 40.04 223.695 40.2 222.908 40.2C221.815 40.2 220.935 39.9133 220.268 39.34C219.602 38.7533 219.268 37.9733 219.268 37C219.268 35.96 219.675 35.1733 220.488 34.64C221.315 34.1067 222.515 33.84 224.088 33.84C224.395 33.84 224.695 33.8467 224.988 33.86C225.282 33.8733 225.642 33.9067 226.068 33.96V33.18C226.068 32.4333 225.875 31.8533 225.488 31.44C225.102 31.0133 224.555 30.8 223.848 30.8C223.115 30.8 222.528 31.0133 222.088 31.44C221.662 31.8533 221.435 32.4267 221.408 33.16H219.568C219.595 32.36 219.788 31.6667 220.148 31.08C220.522 30.48 221.022 30.02 221.648 29.7C222.288 29.3667 223.022 29.2 223.848 29.2C225.155 29.2 226.168 29.5533 226.888 30.26C227.622 30.9533 227.988 31.9333 227.988 33.2V40H226.308ZM221.188 36.94C221.188 37.4867 221.382 37.9267 221.768 38.26C222.155 38.5933 222.668 38.76 223.308 38.76C224.162 38.76 224.835 38.52 225.328 38.04C225.822 37.5467 226.068 36.8933 226.068 36.08V35.22C225.682 35.18 225.342 35.1533 225.048 35.14C224.755 35.1133 224.475 35.1 224.208 35.1C223.195 35.1 222.435 35.2533 221.928 35.56C221.435 35.8533 221.188 36.3133 221.188 36.94ZM234.869 40.22C233.896 40.22 233.036 39.9867 232.289 39.52C231.556 39.0533 230.976 38.4067 230.549 37.58C230.136 36.74 229.929 35.78 229.929 34.7C229.929 33.6333 230.142 32.6867 230.569 31.86C230.996 31.0333 231.582 30.3867 232.329 29.92C233.076 29.44 233.922 29.2 234.869 29.2C235.749 29.2 236.529 29.3867 237.209 29.76C237.902 30.12 238.469 30.64 238.909 31.32C239.362 31.9867 239.649 32.78 239.769 33.7H237.649C237.542 32.8467 237.242 32.18 236.749 31.7C236.256 31.22 235.636 30.98 234.889 30.98C234.302 30.98 233.796 31.14 233.369 31.46C232.942 31.7667 232.609 32.1933 232.369 32.74C232.129 33.2867 232.009 33.94 232.009 34.7C232.009 35.4467 232.129 36.1 232.369 36.66C232.609 37.22 232.942 37.6533 233.369 37.96C233.796 38.2667 234.302 38.42 234.889 38.42C235.649 38.42 236.269 38.18 236.749 37.7C237.242 37.22 237.549 36.5533 237.669 35.7H239.769C239.662 36.6333 239.389 37.44 238.949 38.12C238.509 38.7867 237.942 39.3067 237.249 39.68C236.556 40.04 235.762 40.22 234.869 40.22ZM243.822 40H241.802V29.4H243.822V40ZM244.262 26.94C244.262 27.3133 244.122 27.6333 243.842 27.9C243.576 28.1533 243.229 28.28 242.802 28.28C242.362 28.28 242.002 28.1533 241.722 27.9C241.456 27.6333 241.322 27.3133 241.322 26.94C241.322 26.54 241.456 26.22 241.722 25.98C242.002 25.7267 242.362 25.6 242.802 25.6C243.229 25.6 243.576 25.7267 243.842 25.98C244.122 26.22 244.262 26.54 244.262 26.94ZM248.667 40H246.627V25.64H248.667V40ZM253.49 40H251.47V29.4H253.49V40ZM253.93 26.94C253.93 27.3133 253.79 27.6333 253.51 27.9C253.244 28.1533 252.897 28.28 252.47 28.28C252.03 28.28 251.67 28.1533 251.39 27.9C251.124 27.6333 250.99 27.3133 250.99 26.94C250.99 26.54 251.124 26.22 251.39 25.98C251.67 25.7267 252.03 25.6 252.47 25.6C252.897 25.6 253.244 25.7267 253.51 25.98C253.79 26.22 253.93 26.54 253.93 26.94ZM262.275 38.04V39.82C261.968 39.9667 261.668 40.0667 261.375 40.12C261.095 40.1733 260.795 40.2 260.475 40.2C259.821 40.2 259.241 40.08 258.735 39.84C258.241 39.6 257.855 39.2267 257.575 38.72C257.295 38.2133 257.155 37.5733 257.155 36.8V31.12H254.815V29.4H257.155V26.26H259.175V29.4H262.375V31.12H259.175V36.34C259.175 37.0733 259.335 37.5867 259.655 37.88C259.988 38.1733 260.421 38.32 260.955 38.32C261.195 38.32 261.421 38.3 261.635 38.26C261.861 38.2067 262.075 38.1333 262.275 38.04ZM273.102 29.4L267.802 43.86H265.602L267.122 39.86L262.942 29.4H265.122L268.202 37.48L271.062 29.4H273.102Z" fill="#08AD85"/>
</svg>
